<svg xmlns="http://www.w3.org/2000/svg" style="display:none">
  <symbol id="icon-phone" viewBox="0 0 24 24"><g fill="none" stroke="currentColor" stroke-width="1.75" stroke-linecap="round" stroke-linejoin="round"><path d="M22 16.92v3a2 2 0 0 1-2.18 2 19.79 19.79 0 0 1-8.63-3.07 19.5 19.5 0 0 1-6-6 19.79 19.79 0 0 1-3.07-8.67A2 2 0 0 1 4.11 2h3a2 2 0 0 1 2 1.72 12.84 12.84 0 0 0 .7 2.81 2 2 0 0 1-.45 2.11L8.09 9.91a16 16 0 0 0 6 6l1.27-1.27a2 2 0 0 1 2.11-.45 12.84 12.84 0 0 0 2.81.7A2 2 0 0 1 22 16.92z"/></g></symbol>
  <symbol id="icon-check" viewBox="0 0 24 24"><g fill="none" stroke="currentColor" stroke-width="1.75" stroke-linecap="round" stroke-linejoin="round"><circle cx="12" cy="12" r="10"/><path d="m9 12 2 2 4-4"/></g></symbol>
  <symbol id="icon-building" viewBox="0 0 24 24"><g fill="none" stroke="currentColor" stroke-width="1.75" stroke-linecap="round" stroke-linejoin="round"><path d="M6 22V4a2 2 0 0 1 2-2h8a2 2 0 0 1 2 2v18Z"/><path d="M6 12H4a2 2 0 0 0-2 2v6a2 2 0 0 0 2 2h2"/><path d="M18 9h2a2 2 0 0 1 2 2v9a2 2 0 0 1-2 2h-2"/><path d="M10 6h4"/><path d="M10 10h4"/><path d="M10 14h4"/><path d="M10 18h4"/></g></symbol>
  <symbol id="icon-house" viewBox="0 0 24 24"><g fill="none" stroke="currentColor" stroke-width="1.75" stroke-linecap="round" stroke-linejoin="round"><path d="M3 9l9-7 9 7v11a2 2 0 0 1-2 2H5a2 2 0 0 1-2-2z"/><polyline points="9 22 9 12 15 12 15 22"/></g></symbol>
  <symbol id="icon-dove" viewBox="0 0 24 24"><g fill="none" stroke="currentColor" stroke-width="1.75" stroke-linecap="round" stroke-linejoin="round"><path d="M16 7h.01"/><path d="M3.4 18H12a8 8 0 0 0 8-8V7a4 4 0 0 0-7.28-2.3L2 20"/><path d="m20 7 2 .5-2 .5"/><path d="M10 18v3"/><path d="M14 17.75V21"/><path d="M7 18a6 6 0 0 0 3.84-10.61"/></g></symbol>
  <symbol id="icon-hospital" viewBox="0 0 24 24"><g fill="none" stroke="currentColor" stroke-width="1.75" stroke-linecap="round" stroke-linejoin="round"><path d="M3 21h18"/><path d="M5 21V5a2 2 0 0 1 2-2h10a2 2 0 0 1 2 2v16"/><path d="M12 7v5"/><path d="M9.5 9.5h5"/></g></symbol>
  <symbol id="icon-warning" viewBox="0 0 24 24"><g fill="none" stroke="currentColor" stroke-width="1.75" stroke-linecap="round" stroke-linejoin="round"><path d="m21.73 18-8-14a2 2 0 0 0-3.48 0l-8 14A2 2 0 0 0 4 21h16a2 2 0 0 0 1.73-3Z"/><path d="M12 9v4"/><path d="M12 17h.01"/></g></symbol>
  <symbol id="icon-broom" viewBox="0 0 24 24"><g fill="none" stroke="currentColor" stroke-width="1.75" stroke-linecap="round" stroke-linejoin="round"><path d="M12 3l1.9 5.8a2 2 0 0 0 1.3 1.3L21 12l-5.8 1.9a2 2 0 0 0-1.3 1.3L12 21l-1.9-5.8a2 2 0 0 0-1.3-1.3L3 12l5.8-1.9a2 2 0 0 0 1.3-1.3z"/><path d="M5 3v4"/><path d="M19 17v4"/><path d="M3 5h4"/><path d="M17 19h4"/></g></symbol>
  <symbol id="icon-document" viewBox="0 0 24 24"><g fill="none" stroke="currentColor" stroke-width="1.75" stroke-linecap="round" stroke-linejoin="round"><path d="M15 2H6a2 2 0 0 0-2 2v16a2 2 0 0 0 2 2h12a2 2 0 0 0 2-2V7Z"/><path d="M14 2v4a2 2 0 0 0 2 2h4"/><path d="M10 9H8"/><path d="M16 13H8"/><path d="M16 17H8"/></g></symbol>
  <symbol id="icon-clock" viewBox="0 0 24 24"><g fill="none" stroke="currentColor" stroke-width="1.75" stroke-linecap="round" stroke-linejoin="round"><circle cx="12" cy="12" r="10"/><polyline points="12 6 12 12 16 14"/></g></symbol>
  <symbol id="icon-truck" viewBox="0 0 24 24"><g fill="none" stroke="currentColor" stroke-width="1.75" stroke-linecap="round" stroke-linejoin="round"><path d="M14 18V6a2 2 0 0 0-2-2H4a2 2 0 0 0-2 2v11a1 1 0 0 0 1 1h2"/><path d="M15 18H9"/><path d="M19 18h2a1 1 0 0 0 1-1v-3.65a1 1 0 0 0-.22-.624l-3.48-4.35A1 1 0 0 0 17.52 8H14"/><circle cx="17" cy="18" r="2"/><circle cx="7" cy="18" r="2"/></g></symbol>
  <symbol id="icon-map" viewBox="0 0 24 24"><g fill="none" stroke="currentColor" stroke-width="1.75" stroke-linecap="round" stroke-linejoin="round"><path d="M20 10c0 6-8 12-8 12s-8-6-8-12a8 8 0 0 1 16 0Z"/><circle cx="12" cy="10" r="3"/></g></symbol>
  <symbol id="icon-email" viewBox="0 0 24 24"><g fill="none" stroke="currentColor" stroke-width="1.75" stroke-linecap="round" stroke-linejoin="round"><rect width="20" height="16" x="2" y="4" rx="2"/><path d="m22 7-8.97 5.7a1.94 1.94 0 0 1-2.06 0L2 7"/></g></symbol>
  <symbol id="icon-star" viewBox="0 0 24 24"><g fill="none" stroke="currentColor" stroke-width="1.75" stroke-linecap="round" stroke-linejoin="round"><polygon points="12 2 15.09 8.26 22 9.27 17 14.14 18.18 21.02 12 17.77 5.82 21.02 7 14.14 2 9.27 8.91 8.26 12 2"/></g></symbol>
  <symbol id="icon-phone-line" viewBox="0 0 24 24"><g fill="none" stroke="currentColor" stroke-width="1.75" stroke-linecap="round" stroke-linejoin="round"><path d="M22 16.92v3a2 2 0 0 1-2.18 2 19.79 19.79 0 0 1-8.63-3.07 19.5 19.5 0 0 1-6-6 19.79 19.79 0 0 1-3.07-8.67A2 2 0 0 1 4.11 2h3a2 2 0 0 1 2 1.72 12.84 12.84 0 0 0 .7 2.81 2 2 0 0 1-.45 2.11L8.09 9.91a16 16 0 0 0 6 6l1.27-1.27a2 2 0 0 1 2.11-.45 12.84 12.84 0 0 0 2.81.7A2 2 0 0 1 22 16.92z"/></g></symbol>
  <symbol id="icon-document-line" viewBox="0 0 24 24"><g fill="none" stroke="currentColor" stroke-width="1.75" stroke-linecap="round" stroke-linejoin="round"><path d="M15 2H6a2 2 0 0 0-2 2v16a2 2 0 0 0 2 2h12a2 2 0 0 0 2-2V7Z"/><path d="M14 2v4a2 2 0 0 0 2 2h4"/><path d="M10 9H8"/><path d="M16 13H8"/><path d="M16 17H8"/></g></symbol>
</svg>
